<?xml version="1.0" encoding="utf-8"?>
<svg version="1.1" xmlns:xlink="http://www.w3.org/1999/xlink" width="377px" height="146px" xmlns="http://www.w3.org/2000/svg">
  <g>
    <path d="M 0 0  L 377 0  L 377 146  L 0 146  L 0 0  " fill-rule="nonzero" fill="#cccccc" stroke="none" />
    <path d="M 10 10  L 367 10  L 367 136  L 10 136  L 10 10  " fill-rule="nonzero" fill="#ffffff" stroke="none" />
    <path d="M 206.99 43.8  C 200.858 43.8  196.04 38.982  196.04 32.85  C 196.04 26.718  200.858 21.9  206.99 21.9  C 213.122 21.9  217.94 26.718  217.94 32.85  C 217.94 38.982  213.122 43.8  206.99 43.8  " fill-rule="nonzero" fill="#cccccc" stroke="none" />
    <path d="M 14 133  L 14 67.55  L 101.5 37.8  L 224 105.349071618037  L 294 55.65  L 364 105.349071618037  L 364 133  L 14 133  " fill-rule="nonzero" fill="#169bd5" stroke="none" />
  </g>
</svg>